<svg clip-rule="evenodd" fill-rule="evenodd" stroke-linejoin="round" stroke-miterlimit="2" viewBox="0 0 182 191" xmlns="http://www.w3.org/2000/svg"><ellipse cx="48.933" cy="24.24" fill="#008570" rx="28.807" ry="24.24"/><path d="m43.734 48.101c2.444 18.344-24.278 37.524-5.529 67.779l39.535-42.995c2.763-25.541 3.172-51.867-3.987-60.948z" fill="#008570"/><path d="m76.659 137.638s1.575 14.033 2.416 21.524c.135 1.208-.238 2.418-1.031 3.339s-1.933 1.471-3.148 1.517c-6.657.211-13.092-.234-19.356-1.191 3.077 2.814 2.539 5.35-2.365 7.551 6.657-1.545 10.688-.942 10.591 3.04 14.953-3.833 19.782-6.181 20.476-7.598 1.779-3.636-1.213-18.698-2.058-28.182z" fill="#e0a13a"/><ellipse cx="100.926" cy="108.554" fill="#b1a9a6" rx="63.938" ry="38.293"/><path d="m94.772 142.979s1.857 13.977 2.934 22.082c.445 3.342-1.614 6.508-4.848 7.458-7.961 2.252-15.917 3.347-23.872 3.707 7.795 1.131 12.012 3.625 6.907 9.67 7.828-5.372 11.665-3.99 11.512 4.144 9.679-12.565 14.061-13.527 14.95-18.879.442-2.663-.956-18.696-2.057-28.182z" fill="#e0a13a"/><path d="m120.441 78.544c7.7 17.714 25.82 26.935 40.439 20.58s20.237-25.895 12.537-43.608c-3.871 8-11.736 16.549-22.303 21.142-10.566 4.593-22.183 4.514-30.673 1.886z" fill="#1b1c1e"/><path d="m125.506 93.291c7.7 17.713 25.82 26.934 40.439 20.579 14.62-6.354 20.237-25.895 12.537-43.608-3.87 8-11.736 16.549-22.303 21.142-10.566 4.594-22.183 4.514-30.673 1.887z" fill="#1b1c1e"/><path d="m87.886 102.824c11.063 15.833 31.665 20.567 45.977 10.566 14.313-10.001 16.952-30.975 5.889-46.807-2.732 8.978-9.575 19.498-19.92 26.726-10.345 7.229-22.576 10.037-31.946 9.515z" fill="#ebebeb"/><path d="m100.926 104.173c11.063 15.833 31.665 20.567 45.978 10.566s16.951-30.975 5.888-46.807c-2.732 8.978-9.574 19.498-19.919 26.726-10.345 7.229-22.577 10.037-31.947 9.515z" fill="#283f75"/><path d="m95.444 101.205c4.458 18.793 20.671 31.062 36.181 27.382s24.482-21.925 20.023-40.718c-5.219 7.194-14.468 14.223-25.678 16.883-11.211 2.66-22.632.535-30.526-3.547z" fill="#a38d7f"/><path d="m83.633 102.349c-.165 19.314 13.876 35.115 31.336 35.264 17.461.149 31.77-15.41 31.935-34.724-7.431 5.731-19.106 10.336-31.725 10.228-12.62-.108-24.214-4.911-31.546-10.768z" fill="#8d725f"/><path d="m141.931 96.522c-6.467-18.199-25.075-28.228-41.528-22.382-16.453 5.847-24.56 25.37-18.093 43.569 5.016-7.932 14.404-16.26 26.295-20.486 11.892-4.226 24.43-3.689 33.326-.701z" fill="#d2cecd"/><ellipse cx="91.391" cy="106.211" fill="#e2d9d2" rx="34.579" ry="26.025"/><path d="m32.681 31.802-3.78-4.395-16.529 9.133c9.122-.487 12.194-1.031 20.309-4.738z" fill="#9e7635"/><path d="m21.936 19.309c-7.88 7.649-10.875 8.232-21.908 6.11-.616 7.013 8.74 7.232 32.653 6.383-8.096 3.061-20.309 4.738-20.309 4.738s11.201 1.76 17.952.213l2.357-4.951z" fill="#e0a13a"/><path d="m45.431 20.046c2.972-1.056 6.03-.098 6.825 2.139.795 2.236-.972 4.91-3.944 5.967-2.972 1.056-6.03.098-6.825-2.139-.796-2.236.972-4.91 3.944-5.967z" fill="#e2d9d2"/><path d="m44.441 20.569c1.479-.526 3.188.477 3.814 2.237.626 1.761-.067 3.618-1.546 4.143-1.479.526-3.188-.476-3.814-2.237s.066-3.617 1.546-4.143z" fill="#1b1c1e"/><path d="m19.791 24.869c.836-.297 1.684-.058 1.895.533.21.591-.298 1.311-1.134 1.608-.835.297-1.684.059-1.894-.532s.298-1.312 1.133-1.609z" fill="#4c3225"/><path d="m43.164 56.252-1.375 4.519c12.251 1.387 24.701-.009 37.345-4.123.133-2.08.243-4.288.323-6.662-10.83 4.985-22.712 7.568-36.293 6.266z" fill="#ebebeb"/></svg>